{"title":"The Hangover II 2011 TS V2 x264 Feel-Free","uid":6496050,"size":1281704210,"categoryP":"video","categoryS":"movies","magnet":"?xt=urn:btih:09b8288a47aa63b2548ade42dae91f7e25335f28&amp;dn=The+Hangover+II+2011+TS+V2+x264+Feel-Free&amp;tr=udp%3A%2F%2Ftracker.openbittorrent.com%3A80&amp;tr=udp%3A%2F%2Fopen.demonii.com%3A1337&amp;tr=udp%3A%2F%2Ftracker.coppersurfer.tk%3A6969&amp;tr=udp%3A%2F%2Fexodus.desync.com%3A6969","seeders":2,"leechers":0,"uploader":"hiest","files":-1,"time":1309077755,"description":" Full Credits To Feel Free :)\n\n ######## ######## ######## ##          ######## ########  ######## ######## \n ##       ##       ##       ##          ##       ##     ## ##       ##       \n ##       ##       ##       ##          ##       ##     ## ##       ##       \n ######   ######   ######   ##          ######   ########  ######   ######   \n ##       ##       ##       ##          ##       ##   ##   ##       ##       \n ##       ##       ##       ##          ##       ##    ##  ##       ##       \n ##       ######## ######## ########    ##       ##     ## ######## ########\n\nGenre:Comedy\n Language:English\n IMDb: &lt;a href=&quot;\nhttp://www.imdb.com/title/tt1411697/&quot; rel=&quot;nofollow&quot; target=&quot;_NEW&quot;&gt;\nhttp://www.imdb.com/title/tt1411697/&lt;/a&gt;\n Source:Bambi/Imagine Thanks!\n Subtitles:Romana\n\n Format : MPEG-4\n Format profile : Base Media\n Codec ID : isom\n File size : 1.19 GiB\n Duration : 1h 38mn\n Overall bit rate : 1 724 Kbps\n\n Video\n ID : 1\n Format : AVC\n Format/Info : Advanced Video Codec\n Format profile : &lt;a class=&quot;__cf_email__&quot; href=&quot;/cdn-cgi/l/email-protection&quot; data-cfemail=&quot;5f173638371f136b716e&quot;&gt;[email&amp;#160;protected]&lt;/a&gt;&lt;script cf-hash='f9e31' type=&quot;text/javascript&quot;&gt;\n/* &lt;![CDATA[ */!function(){try{var t=&quot;currentScript&quot;in document?document.currentScript:function(){for(var t=document.getElementsByTagName(&quot;script&quot;),e=t.length;e--;)if(t[e].getAttribute(&quot;cf-hash&quot;))return t[e]}();if(t&amp;&amp;t.previousSibling){var e,r,n,i,c=t.previousSibling,a=c.getAttribute(&quot;data-cfemail&quot;);if(a){for(e=&quot;&quot;,r=parseInt(a.substr(0,2),16),n=2;a.length-n;n+=2)i=parseInt(a.substr(n,2),16)^r,e+=String.fromCharCode(i);e=document.createTextNode(e),c.parentNode.replaceChild(e,c)}}}catch(u){}}();/* ]]&gt; */&lt;/script&gt;\n Format settings, CABAC : Yes\n Format settings, ReFrames : 3 frames\n Codec ID : avc1\n Codec ID/Info : Advanced Video Coding\n Duration : 1h 38mn\n Bit rate mode : Variable\n Bit rate : 1 500 Kbps\n Maximum bit rate : 6 530 Kbps\n Width : 720 pixels\n Height : 288 pixels\n Display aspect ratio : 2.500\n Frame rate mode : Constant\n Frame rate : 23.976 fps\n Color space : YUV\n Chroma subsampling : 4:2:0\n Bit depth : 8 bits\n Scan type : Progressive\n Bits/(Pixel*Frame) : 0.302\n Stream size : 1.03 GiB (87%)\n Writing library : x264\n\n Audio\n ID : 2\n Format : AAC\n Format/Info : Advanced Audio Codec\n Format version : Version 4\n Format profile : LC\n Format settings, SBR : No\n Codec ID : 40\n Duration : 1h 38mn\n Bit rate mode : Variable\n Bit rate : 224 Kbps\n Maximum bit rate : 253 Kbps\n Channel(s) : 2 channels\n Channel positions : Front: L R\n Sampling rate : 44.1 KHz\n Stream size : 159 MiB (13%)\n\n\n Plot:\n Two years after the bachelor party in Las Vegas, Phil, Stu, Alan, and Doug jet to Thailand for Stu's wedding. Stu's plan for a subdued pre-wedding brunch, however, goes seriously awry.\n\n\n\nGreets:\n\n INK,CRYS,IMAGINE,LKRG,FXG,3Li,FLAWL3SS,TA,iLLUSiON,ViSiON,DTRG SAFCuk009,LU,TheFalcon007,MYSTiC,PrisM,Noir,WBZ,LAP,Rx,Kingdom,SAFCuk009+Fabreezy,HDLiTE,TWiZTED,ExtraTorrentRG.ELEKTRI4KA,MAGNAT,CM8\n And to all the other p2p grps past and present\n\n\n\n\n==================================           &lt;a href=&quot;\nhttp://thepiratebay.se/user/hiest&quot; rel=&quot;nofollow&quot; target=&quot;_NEW&quot;&gt;\nhttp://thepiratebay.se/user/hiest&lt;/a&gt;\n==================================\n\n\n\n\nScreenshots:\n &lt;a href=&quot;\nhttp://leetleech.org/images/79800013939700692833.png&quot; rel=&quot;nofollow&quot; target=&quot;_NEW&quot;&gt;\nhttp://leetleech.org/images/79800013939700692833.png&lt;/a&gt;\n &lt;a href=&quot;\nhttp://leetleech.org/images/47161661471839783082.png&quot; rel=&quot;nofollow&quot; target=&quot;_NEW&quot;&gt;\nhttp://leetleech.org/images/47161661471839783082.png&lt;/a&gt;\n &lt;a href=&quot;\nhttp://leetleech.org/images/23694437039297839780.png&quot; rel=&quot;nofollow&quot; target=&quot;_NEW&quot;&gt;\nhttp://leetleech.org/images/23694437039297839780.png&lt;/a&gt;\n &lt;a href=&quot;\nhttp://leetleech.org/images/99188219326218034302.png&quot; rel=&quot;nofollow&quot; target=&quot;_NEW&quot;&gt;\nhttp://leetleech.org/images/99188219326218034302.png&lt;/a&gt;\n &lt;a href=&quot;\nhttp://leetleech.org/images/86624208765766264442.png&quot; rel=&quot;nofollow&quot; target=&quot;_NEW&quot;&gt;\nhttp://leetleech.org/images/86624208765766264442.png&lt;/a&gt;\n &lt;a href=&quot;\nhttp://leetleech.org/images/38366628315713109788.png&quot; rel=&quot;nofollow&quot; target=&quot;_NEW&quot;&gt;\nhttp://leetleech.org/images/38366628315713109788.png&lt;/a&gt;\n\n Full Credits To Feel Free :)\n\n ######## ######## ######## ##          ######## ########  ######## ######## \n ##       ##       ##       ##          ##       ##     ## ##       ##       \n ##       ##       ##       ##          ##       ##     ## ##       ##       \n ######   ######   ######   ##          ######   ########  ######   ######   \n ##       ##       ##       ##          ##       ##   ##   ##       ##       \n ##       ##       ##       ##          ##       ##    ##  ##       ##       \n ##       ######## ######## ########    ##       ##     ## ######## ########","torrent":{"xt":"urn:btih:09b8288a47aa63b2548ade42dae91f7e25335f28","amp;dn":"The+Hangover+II+2011+TS+V2+x264+Feel-Free","amp;tr":["udp%3A%2F%2Ftracker.openbittorrent.com%3A80","udp%3A%2F%2Fopen.demonii.com%3A1337","udp%3A%2F%2Ftracker.coppersurfer.tk%3A6969","udp%3A%2F%2Fexodus.desync.com%3A6969"],"infoHash":"09b8288a47aa63b2548ade42dae91f7e25335f28","infoHashBuffer":{"type":"Buffer","data":[9,184,40,138,71,170,99,178,84,138,222,66,218,233,31,126,37,51,95,40]},"announce":[],"urlList":[]}}